<?xml version="1.0" encoding="utf-8"?>
<!-- Generator: Adobe Illustrator 27.6.1, SVG Export Plug-In . SVG Version: 6.00 Build 0)  -->
<svg version="1.1" xmlns="http://www.w3.org/2000/svg" xmlns:xlink="http://www.w3.org/1999/xlink" x="0px" y="0px"
	 viewBox="0 0 600 150" style="enable-background:new 0 0 600 150;" xml:space="preserve">
<style type="text/css">
	.st0{fill:#964D9E;}
	.st1{fill:#AAD1EF;}
	.st2{fill:#FFFFFF;stroke:#000000;stroke-miterlimit:10;}
	.st3{fill:#FFFFFF;}
	.st4{font-family:'MyriadPro-Regular';}
	.st5{font-size:111.8719px;}
</style>
<g id="Layer_2">
	<ellipse transform="matrix(0.5 -0.866 0.866 0.5 2.7803 70.9111)" class="st0" cx="62.8" cy="33.05" rx="16.17" ry="22.75"/>
	<ellipse transform="matrix(0.5 -0.866 0.866 0.5 37.8909 111.3744)" class="st0" cx="115.4" cy="22.87" rx="15.43" ry="21.91"/>
	<ellipse transform="matrix(0.5 -0.866 0.866 0.5 -37.1903 67.9024)" class="st0" cx="40.21" cy="66.16" rx="15.79" ry="22.49"/>
	<ellipse transform="matrix(0.5 -0.866 0.866 0.5 -70.9669 105.1318)" class="st0" cx="55.56" cy="114.03" rx="15.61" ry="21.91"/>
	<path class="st0" d="M90.9,58.7l4.73-0.85c0.3-0.05,0.6-0.1,0.91-0.13l7.75-0.76c0.37-0.04,0.74-0.05,1.11-0.05h9.35
		c0.44,0,0.87-0.03,1.31-0.08l13.65-1.58c0.36-0.04,0.72-0.1,1.08-0.18l10.31-2.21c0.78-0.17,2.61-0.25,3.41-0.25h-0.97
		c1.76,0,3.5,0.41,5.08,1.2l5.85,2.93c0.45,0.22,0.88,0.48,1.3,0.76l2.44,1.65c1.15,0.78,2.15,1.77,2.95,2.91l0.37,0.54
		c0.77,1.11,1.34,2.35,1.68,3.67l0.85,3.32c0.24,0.92,0.36,1.87,0.36,2.82v4.41v1.3c0,0.96-0.12,1.92-0.36,2.85l-0.36,1.38
		c-0.32,1.23-0.84,2.4-1.55,3.45l-0.44,0.65c-0.6,0.9-1.32,1.71-2.15,2.4l-3.05,2.56c-0.68,0.57-1.43,1.06-2.22,1.46l-4.35,2.18
		c-0.42,0.21-0.83,0.45-1.22,0.71l-4.46,2.97c-0.41,0.28-0.81,0.58-1.18,0.9l-1.66,1.46c-1.25,1.09-2.24,2.45-2.91,3.97l-1.09,2.46
		c-0.31,0.71-0.55,1.45-0.71,2.21l-0.66,3.1c-0.08,0.38-0.14,0.77-0.19,1.15l-0.74,6.84c-0.03,0.32-0.08,0.64-0.14,0.95l-1.38,7.05
		c-0.05,0.25-0.11,0.5-0.17,0.75l-0.82,3.09c-0.3,1.12-0.77,2.19-1.39,3.17l0,0c-0.96,1.51-2.27,2.77-3.81,3.68l-4.04,2.39
		c-0.78,0.46-1.61,0.83-2.48,1.09l-3.15,0.96c-1.53,0.47-3.14,0.6-4.73,0.4l-3.27-0.41c-0.74-0.09-1.46-0.26-2.17-0.49l-3.85-1.28
		c-1.18-0.39-2.29-0.98-3.28-1.73l-1.66-1.26c-0.75-0.57-1.43-1.24-2.02-1.98l-2.84-3.57c-1.05-1.32-1.79-2.86-2.17-4.51l-2.05-8.85
		c-0.08-0.33-0.14-0.66-0.19-1l-1.03-7.39L87.45,106c-0.2-1.13-0.56-2.23-1.09-3.26l-2.19-4.26c-0.19-0.37-0.36-0.74-0.5-1.13
		l-2.73-7.13c-0.09-0.24-0.19-0.48-0.3-0.71l-3.08-6.65c-0.69-1.5-1.05-3.13-1.05-4.78v-2.57c0-1.82,0.44-3.61,1.27-5.22l1.73-3.34
		c0.85-1.64,2.09-3.06,3.61-4.11l3.31-2.3C87.76,59.62,89.29,58.99,90.9,58.7z"/>
</g>
<g id="Layer_3">
	<path class="st1" d="M92.42,61.21c-0.77,0.38-2.91,1.47-4.64,3.78c-1.17,1.56-1.69,3.27-2.75,6.7c-0.67,2.18-1.01,3.29-1.03,4.46
		c-0.04,2.15,0.61,3.84,1.55,5.84c1.87,4.02,2.9,5.14,4.46,8.07c1.11,2.09,3.39,6.8,4.46,12.88c0.5,2.84,0.1,2.38,0.69,5.84
		c1.06,6.28,2.78,10.26,3.26,11.33c0.98,2.19,1.51,3.38,2.58,4.81c3.6,4.84,8.86,6.5,10.13,6.87c5.46,1.57,13.7,1.29,18.03-3.61
		c0.58-0.66,0.68-0.94,3.95-12.36c1.99-6.97,3-10.52,6.18-14.08c0.19-0.22,1.27-1.17,3.43-3.09c8.39-7.44,12.31-10.23,13.39-10.99
		c2.98-2.09,2.72-1.66,3.26-2.23c4.5-4.71,4.11-14.85-0.69-21.46c-5.4-7.45-15.08-8.64-20.43-7.9c-0.73,0.1-2.38,0.47-5.67,1.2
		c-8.01,1.79-8.56,2.28-12.02,2.75c-3.95,0.54-7.14,0.43-9.96,0.34c-4.42-0.14-5.18-0.56-9.44-0.52
		C95.42,59.9,93.47,60.69,92.42,61.21z"/>
	<path class="st1" d="M41.48,102.93c-1.31,1.35-1.89,2.92-1.89,2.92c-0.84,2.26-0.4,4.3-0.17,5.32c0.86,3.77,3.41,6.16,5.49,8.07
		c2.32,2.12,5.21,4.76,9.96,5.84c1.29,0.29,7,1.43,12.36-1.55c1.29-0.72,2.37-1.32,3.26-2.58c3.22-4.54-0.32-11.5-0.69-12.19
		c-3.96-7.53-12.76-9.03-14.42-9.27C50.02,98.71,44.23,100.08,41.48,102.93z"/>
	<path class="st1" d="M24.2,60.7c-0.07,0.51-0.47,3.25,1.03,5.84c0.74,1.27,1.93,2.12,4.29,3.78c1.86,1.3,4.05,2.88,7.38,4.29
		c2.84,1.2,4.25,1.8,6.01,2.06c2.07,0.31,6.7,0.99,10.3-2.06c3.43-2.91,4.48-7.98,3.09-11.85c-0.95-2.64-2.79-4.03-5.49-6.01
		c-4.75-3.48-9.92-7.27-16.14-6.01C29.82,51.73,24.9,55.81,24.2,60.7z"/>
	<path class="st1" d="M48.87,21.15c-1.32,1.65-1.59,3.42-1.72,4.29c-0.55,3.84,1.22,6.93,1.89,8.07c3.1,5.26,8.61,7.14,12.36,8.41
		c2.81,0.96,4.81,1.64,7.55,1.37c3.86-0.37,9.12-2.59,10.47-6.52c2.22-6.48-7.07-14.99-14.77-17.86
		c-5.79-2.16-10.17-0.93-10.99-0.69C52.41,18.61,50.39,19.24,48.87,21.15z"/>
	<path class="st1" d="M99.34,14.46c-0.71,3.16,0.99,6.17,2.06,8.07c1.56,2.77,3.5,4.37,4.46,5.15c3.89,3.16,7.93,4,11.16,4.64
		c3.85,0.76,5.91,1.16,8.41,0.17c0.3-0.12,4.7-1.93,5.84-6.01c1.54-5.51-4.1-10.79-6.52-13.05c-2.16-2.02-8.6-8.03-16.31-6.35
		C105.14,7.79,100.3,10.21,99.34,14.46z"/>
	<path class="st2" d="M92.13,94.12"/>
	<text transform="matrix(1 0 0 1 186.7645 112.4098)" class="st3 st4 st5">АКСИС</text>
</g>
</svg>
